<?xml version="1.0" encoding="utf-8"?>
<!-- Generator: Adobe Illustrator 24.0.1, SVG Export Plug-In . SVG Version: 6.00 Build 0)  -->
<svg version="1.1" id="Layer_1" xmlns="http://www.w3.org/2000/svg" xmlns:xlink="http://www.w3.org/1999/xlink" x="0px" y="0px"
	 viewBox="0 0 448 336" style="enable-background:new 0 0 448 336;" xml:space="preserve">
<style type="text/css">
	.st0{fill:#FFFFFF;}
	.st1{fill:#0071CE;}
	.st2{fill:#D9272E;}
</style>
<rect id="background_8_" class="st0" width="448" height="336"/>
<g id="logo_5_">
	<path class="st1" d="M183.9,169.2c-6.9,6.9-14.7,9.8-21.5,6.9V229h123.2v-54.8c-10.7,11.8-23.4,6.9-22.5-3.9l0,0
		c-18.6,22.5-29.3,9.8-26.4,1l0,0c-17.6,20.6-28.3,8.8-23.4-2l0,0C191.8,195.6,177.1,186,183.9,169.2L183.9,169.2L183.9,169.2z"/>
	<path class="st2" d="M227.9,98.8c2-4.9,0-10.7-2-11.8l0,0c7.8,1,14.7,11.8,14.7,23.4c0,15.6-16.6,27.5-15.6,41l0,0
		c3.9-18.6,31.3-29.3,25.5-48.9l0,0c8.8,4.9,11.8,19.6,13.7,30.3l0,0c3-10.7,18.6-17.6,21.5-26.4l0,0v56.7H162.4v-29.3
		c0-17.6,30.3-16.6,28.3-33.3l0,0c8.8,14.7-4.9,26.4-3,36.2l0,0C195.7,108.8,222,116.5,227.9,98.8L227.9,98.8z"/>
</g>
</svg>
