<?xml version="1.0" ?><!DOCTYPE svg  PUBLIC '-//W3C//DTD SVG 1.1//EN'  'http://www.w3.org/Graphics/SVG/1.1/DTD/svg11.dtd'><svg enable-background="new 0 0 64 64" height="64px" id="Layer_1" version="1.1" viewBox="0 0 64 64" width="64px" xml:space="preserve" xmlns="http://www.w3.org/2000/svg" xmlns:xlink="http://www.w3.org/1999/xlink"><g><path d="   M49,58.1c0,1.1-0.9,1.9-2,1.9H17c-1.1,0-2-0.9-2-1.9V5.9C15,4.9,15.9,4,17,4h30c1.1,0,2,0.9,2,1.9V58.1z" fill="none" stroke="#4D4D4D" stroke-linecap="round" stroke-linejoin="round" stroke-miterlimit="10" stroke-width="2"/><line fill="none" stroke="#4D4D4D" stroke-linecap="round" stroke-linejoin="round" stroke-miterlimit="10" stroke-width="2" x1="15" x2="49" y1="13" y2="13"/><line fill="none" stroke="#4D4D4D" stroke-linecap="round" stroke-linejoin="round" stroke-miterlimit="10" stroke-width="2" x1="15" x2="49" y1="23" y2="23"/><line fill="none" stroke="#4D4D4D" stroke-linecap="round" stroke-linejoin="round" stroke-miterlimit="10" stroke-width="2" x1="15" x2="49" y1="33" y2="33"/><circle cx="32" cy="43.9" fill="none" r="5.8" stroke="#4D4D4D" stroke-linecap="round" stroke-linejoin="round" stroke-miterlimit="10" stroke-width="2"/><circle cx="43" cy="39.4" fill="none" r="2.4" stroke="#4D4D4D" stroke-linecap="round" stroke-linejoin="round" stroke-miterlimit="10"/><line fill="none" stroke="#4D4D4D" stroke-miterlimit="10" x1="37.7" x2="46" y1="18" y2="18"/><line fill="none" stroke="#4D4D4D" stroke-miterlimit="10" x1="37.7" x2="46" y1="8" y2="8"/><line fill="none" stroke="#4D4D4D" stroke-miterlimit="10" x1="37.7" x2="46" y1="28" y2="28"/><line fill="none" stroke="#4D4D4D" stroke-miterlimit="10" x1="19.8" x2="45.4" y1="55.9" y2="55.9"/></g></svg>