<?xml version="1.0" ?><svg height="24px" version="1.1" viewBox="0 0 24 24" width="24px" xmlns="http://www.w3.org/2000/svg" xmlns:sketch="http://www.bohemiancoding.com/sketch/ns" xmlns:xlink="http://www.w3.org/1999/xlink"><title/><desc/><defs/><g fill="none" fill-rule="evenodd" id="miu" stroke="none" stroke-width="1"><g id="Artboard-1" transform="translate(-323.000000, -479.000000)"><g id="slice" transform="translate(215.000000, 119.000000)"/><path d="M326.5,485 C327.880712,485 329,483.880712 329,482.5 C329,481.119288 327.880712,480 326.5,480 C325.119288,480 324,481.119288 324,482.5 C324,483.880712 325.119288,485 326.5,485 Z M335,485 C336.380712,485 337.5,483.880712 337.5,482.5 C337.5,481.119288 336.380712,480 335,480 C333.619288,480 332.5,481.119288 332.5,482.5 C332.5,483.880712 333.619288,485 335,485 Z M343.5,485 C344.880712,485 346,483.880712 346,482.5 C346,481.119288 344.880712,480 343.5,480 C342.119288,480 341,481.119288 341,482.5 C341,483.880712 342.119288,485 343.5,485 Z M326.5,493 C327.880712,493 329,491.880712 329,490.5 C329,489.119288 327.880712,488 326.5,488 C325.119288,488 324,489.119288 324,490.5 C324,491.880712 325.119288,493 326.5,493 Z M335,493 C336.380712,493 337.5,491.880712 337.5,490.5 C337.5,489.119288 336.380712,488 335,488 C333.619288,488 332.5,489.119288 332.5,490.5 C332.5,491.880712 333.619288,493 335,493 Z M343.5,493 C344.880712,493 346,491.880712 346,490.5 C346,489.119288 344.880712,488 343.5,488 C342.119288,488 341,489.119288 341,490.5 C341,491.880712 342.119288,493 343.5,493 Z M326.5,501 C327.880712,501 329,499.880712 329,498.5 C329,497.119288 327.880712,496 326.5,496 C325.119288,496 324,497.119288 324,498.5 C324,499.880712 325.119288,501 326.5,501 Z M335,501 C336.380712,501 337.5,499.880712 337.5,498.5 C337.5,497.119288 336.380712,496 335,496 C333.619288,496 332.5,497.119288 332.5,498.5 C332.5,499.880712 333.619288,501 335,501 Z M343.5,501 C344.880712,501 346,499.880712 346,498.5 C346,497.119288 344.880712,496 343.5,496 C342.119288,496 341,497.119288 341,498.5 C341,499.880712 342.119288,501 343.5,501 Z" fill="#000000" id="editor-keypad-glyph"/></g></g></svg>