<?xml version="1.0" ?><!DOCTYPE svg  PUBLIC '-//W3C//DTD SVG 1.1//EN'  'http://www.w3.org/Graphics/SVG/1.1/DTD/svg11.dtd'><svg enable-background="new 0 0 512 512" height="512px" id="Layer_1" version="1.1" viewBox="0 0 512 512" width="512px" xml:space="preserve" xmlns="http://www.w3.org/2000/svg" xmlns:xlink="http://www.w3.org/1999/xlink"><path d="M389.255,256.004c0-70.738-55.412-128.758-125.104-132.982c-1.73-0.105-3.469-0.158-5.217-0.193  c-0.975-0.026-1.949-0.079-2.934-0.079c-0.984,0-1.958,0.052-2.934,0.079c-1.748,0.035-3.487,0.088-5.217,0.193  c-69.693,4.225-125.1,62.245-125.1,132.982c0,70.729,55.407,128.75,125.1,132.974v0.272h5.234H256h2.916h5.234v-0.272  C333.843,384.754,389.255,326.733,389.255,256.004z M232.963,141.343c-12.757,13.376-29.537,34.104-40.99,59.935h-39.286  C168.882,170.809,198.147,148.325,232.963,141.343z M139.047,256.004c0-13.464,2.319-26.384,6.517-38.434h40.173  c-4.093,12.806-6.662,26.577-6.78,41.139c-0.097,12.104,1.555,24.004,4.848,35.721h-38.241  C141.365,282.38,139.047,269.46,139.047,256.004z M152.686,310.721h36.845c8.739,20.658,22.906,40.604,42.408,59.725  C197.576,363.235,168.724,340.883,152.686,310.721z M247.85,363.174c-18.154-16.934-31.61-34.455-40.384-52.452h40.384V363.174z   M247.85,294.429h-46.989c-3.79-11.664-5.691-23.494-5.604-35.492c0.105-14.649,3.131-28.544,7.817-41.367h44.775V294.429z   M247.85,201.278h-37.714c11.343-22.581,26.806-40.63,37.714-51.723V201.278z M372.954,256.004c0,13.456-2.314,26.375-6.518,38.425  h-38.24c3.293-11.717,4.944-23.617,4.848-35.721c-0.114-14.562-2.688-28.333-6.78-41.139h40.173  C370.64,229.62,372.954,242.54,372.954,256.004z M359.319,201.278h-39.291c-11.452-25.831-28.229-46.558-40.989-59.935  C313.854,148.325,343.118,170.809,359.319,201.278z M264.151,149.564c10.908,11.093,26.375,29.133,37.714,51.714h-37.714V149.564z   M264.151,217.57h44.775c4.69,12.823,7.716,26.718,7.817,41.367c0.088,11.998-1.81,23.828-5.6,35.492h-46.993V217.57z   M264.151,363.174v-52.452h40.384C295.761,328.719,282.305,346.24,264.151,363.174z M280.066,370.446  c19.498-19.12,33.669-39.066,42.404-59.725h36.849C343.277,340.883,314.424,363.235,280.066,370.446z"/><path d="M275.287,72.748c0-10.645-8.638-19.278-19.287-19.278c-10.645,0-19.278,8.634-19.278,19.278  c0,10.654,8.633,19.279,19.278,19.279C266.65,92.027,275.287,83.402,275.287,72.748z"/><path d="M72.753,231.825c-13.328,0-24.171,10.847-24.171,24.179c0,13.324,10.843,24.162,24.171,24.162  c13.323,0,24.17-10.838,24.17-24.162C96.924,242.672,86.076,231.825,72.753,231.825z M72.753,270.39  c-7.94,0-14.391-6.455-14.391-14.386c0-7.94,6.451-14.395,14.391-14.395c7.931,0,14.386,6.455,14.386,14.395  C87.139,263.935,80.684,270.39,72.753,270.39z"/><path d="M236.722,439.252c0,10.645,8.633,19.278,19.278,19.278c10.649,0,19.278-8.634,19.278-19.278  c0-10.654-8.629-19.278-19.278-19.278C245.355,419.973,236.722,428.597,236.722,439.252z"/><path d="M439.247,231.834c-13.323,0-24.166,10.838-24.166,24.17c0,13.324,10.843,24.171,24.166,24.171  c13.333,0,24.171-10.848,24.171-24.171C463.418,242.672,452.58,231.834,439.247,231.834z M439.247,270.39  c-7.931,0-14.387-6.455-14.387-14.386c0-7.94,6.456-14.395,14.387-14.395c7.94,0,14.396,6.455,14.396,14.395  C453.643,263.935,447.188,270.39,439.247,270.39z"/></svg>